<svg width="30" height="28" viewBox="0 0 30 28" fill="none" xmlns="http://www.w3.org/2000/svg">
<path d="M25.1822 14.1237V26.9272C25.1822 27.2757 24.8991 27.5588 24.5501 27.5588H19.1405C18.792 27.5588 18.5084 27.2757 18.5084 26.9272V19.7924C18.5084 18.8283 18.1137 17.9516 17.478 17.3156C16.8622 16.6587 15.8937 16.2852 15.0012 16.2852C14.0355 16.2852 13.1588 16.6789 12.5245 17.3135C11.8875 17.9497 11.4936 18.8264 11.4936 19.7921V26.9269C11.4936 27.2755 11.2105 27.5586 10.8619 27.5586H5.45168C5.10315 27.5586 4.82003 27.2755 4.82003 26.9269V14.1235H0.631645C0.283113 14.1235 0 13.8403 0 13.4918C0 13.2845 0.0998205 13.1 0.254481 12.9848L14.5813 0.160366C14.825 -0.0570709 15.1901 -0.0513013 15.4256 0.164936L29.7906 13.0232C30.0492 13.2546 30.0713 13.6529 29.8399 13.9115C29.7158 14.0503 29.5439 14.1208 29.3711 14.1212L25.1823 14.1236L25.1822 14.1237Z" fill="#23272D"/>
</svg>
