<svg width="30" height="19" viewBox="0 0 30 19" fill="none" xmlns="http://www.w3.org/2000/svg">
<path d="M29.8456 3.06399C30.5144 1.52691 28.7945 1.54195 28.7945 1.54195H26.5177C26.825 4.15654e-07 25.239 0 25.239 0H9.69026C8.30638 0 7.87366 0.874523 7.75816 1.21078L7.72098 1.34017V1.3413L6.76612 4.66942H1.6801C-0.255926 4.66942 0.000569895 6.06891 0.0232338 6.17642L2.23137 16.3345V16.3357L2.27166 16.5204C2.38346 16.9179 2.80569 17.8345 4.29144 18.0342H22.1989C22.7105 17.936 23.5129 17.6126 23.9667 16.5735L29.8437 3.071C29.8449 3.06759 29.8449 3.06646 29.8457 3.06447L29.8456 3.06399ZM22.6904 12.0642L21.8312 4.40131C21.64 2.73057 20.142 2.74161 20.142 2.74161H15.516C14.1883 2.74161 14.1452 3.92944 14.1452 3.92944V4.66921H8.51013L9.34776 1.54195H24.8537L22.6904 12.0642ZM24.6202 11.0753L26.2107 3.08411H28.1952L24.6202 11.0753Z" fill="#23272D"/>
</svg>
