<svg width="35" height="35" viewBox="0 0 35 35" fill="none" xmlns="http://www.w3.org/2000/svg">
<g clip-path="url(#clip0_152_773)">
<path d="M29.3125 23.625C28.1041 23.625 27.125 24.409 27.125 25.375V32.375H24.5V17.5H23.625V15.75H22.75V10.5H21.875V15.75H21V17.5H20.125V29.75H18.375V21.875L16.625 20.125L14.875 21.875V32.375H13.125V25.375L8.75 21.875V28H7V18.375L5.25 15.75L3.5 18.375V38.5H31.5V25.375C31.5 24.409 30.5209 23.625 29.3125 23.625Z" fill="#23272D"/>
<path d="M29.75 12.6875C29.75 12.9291 29.5541 13.125 29.3125 13.125C29.0709 13.125 28.875 12.9291 28.875 12.6875C28.875 12.4459 29.0709 12.25 29.3125 12.25C29.5541 12.25 29.75 12.4459 29.75 12.6875Z" fill="#23272D"/>
</g>
<defs>
<clipPath id="clip0_152_773">
<rect width="35" height="35" fill="white"/>
</clipPath>
</defs>
</svg>
