<svg width="30" height="30" viewBox="0 0 30 30" fill="none" xmlns="http://www.w3.org/2000/svg">
<path d="M20.5841 12.7927L11.596 21.7809C11.4805 21.8963 11.3241 21.9612 11.1612 21.9612L7.6293 21.9656C7.28933 21.9656 7.01367 21.6899 7.01367 21.35L7.01807 17.8181C7.01834 17.6551 7.0832 17.4987 7.19836 17.3836L16.1865 8.39542C16.4174 8.16456 16.7307 8.03484 17.0572 8.03484C17.3834 8.03484 17.6967 8.16456 17.9276 8.39542L20.5841 11.0525C20.8147 11.2834 20.9442 11.5962 20.9442 11.9227C20.9442 12.2489 20.8147 12.5619 20.5841 12.7928L20.5841 12.7927ZM22.058 20.1184H15.4293C14.9192 20.1184 14.5059 20.5317 14.5059 21.0418C14.5059 21.5519 14.9192 21.9653 15.4293 21.9653H22.0578C22.5679 21.9653 22.9812 21.5519 22.9812 21.0418C22.9812 20.5317 22.5679 20.1184 22.0578 20.1184H22.058ZM30 5.85058L29.9997 24.1484C29.9981 25.6991 29.3813 27.1856 28.285 28.2822C27.1885 29.3785 25.7019 29.9953 24.1513 29.9969H5.84847C4.29786 29.9953 2.81127 29.3785 1.71468 28.2822C0.618372 27.1856 0.00161822 25.6991 0 24.1484V5.84847C0.00164897 4.29786 0.618379 2.81127 1.71468 1.71468C2.81127 0.618372 4.29786 0.00161822 5.84847 0H24.1484C25.6991 0.00164897 27.1856 0.618379 28.2822 1.71468C29.3785 2.81127 29.9953 4.29786 29.9969 5.84847L30 5.85058ZM28.1531 5.85058H28.1528C28.1515 4.78973 27.7296 3.77257 26.9793 3.02256C26.2293 2.27227 25.2121 1.8504 24.1513 1.84899H5.84847C4.78762 1.85037 3.77046 2.27224 3.02045 3.02256C2.27015 3.77257 1.84829 4.78973 1.84688 5.85058V24.1484C1.84826 25.2093 2.27013 26.2265 3.02045 26.9765C3.77046 27.7268 4.78762 28.1486 5.84847 28.15H24.1484C25.2093 28.1487 26.2265 27.7268 26.9765 26.9765C27.7268 26.2265 28.1486 25.2093 28.15 24.1484L28.1531 5.85058Z" fill="#23272D"/>
</svg>