<svg width="20" height="29" viewBox="0 0 20 29" fill="none" xmlns="http://www.w3.org/2000/svg">
<path d="M10.0013 14.8226C7.34191 14.8226 5.17782 12.6592 5.17782 9.99987C5.17782 7.3405 7.34217 5.17763 10.0013 5.17763C12.6607 5.17763 14.823 7.34044 14.823 9.99987C14.823 12.6593 12.6605 14.8226 10.0013 14.8226ZM10.0013 0C4.48668 0 0 4.48656 0 10C0 12.6208 1.63165 16.5514 4.84881 21.682C7.22422 25.4714 9.63294 28.551 9.65623 28.5812C9.73971 28.6872 9.86654 28.7491 10.0012 28.7491H10.0022C10.137 28.7491 10.2636 28.6862 10.3463 28.5802C10.3707 28.5488 12.7783 25.439 15.1527 21.6348C18.3696 16.4824 20 12.5672 20 9.99964C20 4.48658 15.5142 0 10.0013 0Z" fill="#23272D"/>
</svg>